<svg width="54" height="72" viewBox="0 0 54 72" fill="none" xmlns="http://www.w3.org/2000/svg">
<path d="M5.1605 25.0493C3.47229 24.4633 2.15186 23.2529 1.1992 21.4181C0.246541 19.5834 -0.0800824 17.6289 0.219328 15.5545C0.518738 13.4802 1.3541 11.9331 2.7254 10.9132C4.0967 9.89322 5.62646 9.67627 7.31468 10.2623C9.00289 10.8483 10.3233 12.0587 11.276 13.8934C12.2286 15.7282 12.5553 17.6827 12.2559 19.757C11.9564 21.8314 11.1211 23.3785 9.74978 24.3984C8.37847 25.4184 6.84872 25.6353 5.1605 25.0493ZM19.5515 15.373C17.8633 14.787 16.5428 13.5766 15.5902 11.7419C14.6375 9.90714 14.3109 7.9526 14.6103 5.87827C14.9097 3.80394 15.7451 2.25681 17.1164 1.23689C18.4877 0.216957 20.0175 3.92712e-06 21.7057 0.586024C23.3939 1.17204 24.7143 2.38243 25.667 4.21717C26.6196 6.05191 26.9463 8.00645 26.6468 10.0808C26.3474 12.1551 25.5121 13.7022 24.1408 14.7222C22.7695 15.7421 21.2397 15.959 19.5515 15.373ZM36.2735 21.1777C34.5853 20.5916 33.2649 19.3813 32.3122 17.5465C31.3596 15.7118 31.0329 13.7572 31.3324 11.6829C31.6318 9.60857 32.4671 8.06144 33.8384 7.04151C35.2097 6.02158 36.7395 5.80463 38.4277 6.39065C40.1159 6.97667 41.4364 8.18705 42.389 10.0218C43.3417 11.8565 43.6683 13.8111 43.3689 15.8854C43.0695 17.9597 42.2341 19.5069 40.8628 20.5268C39.4915 21.5467 37.9617 21.7637 36.2735 21.1777ZM46.6312 39.4448C44.943 38.8587 43.6225 37.6484 42.6699 35.8136C41.7172 33.9789 41.3906 32.0243 41.69 29.95C41.9894 27.8757 42.8248 26.3286 44.1961 25.3086C45.5674 24.2887 47.0971 24.0717 48.7853 24.6578C50.4735 25.2438 51.794 26.4542 52.7466 28.2889C53.6993 30.1236 54.0259 32.0782 53.7265 34.1525C53.4271 36.2268 52.5917 37.774 51.2204 38.7939C49.8491 39.8138 48.3194 40.0308 46.6312 39.4448ZM6.72744 60.978C4.85457 60.3278 3.4408 58.9302 2.48614 56.7849C1.53148 54.6396 1.22398 52.3904 1.56363 50.0372C1.89579 47.736 2.75894 45.8924 4.15306 44.5064C5.54719 43.1204 7.00947 41.83 8.5399 40.6352C9.69491 39.7703 10.7929 38.8137 11.8339 37.7655C12.8749 36.7172 13.8773 35.6123 14.841 34.4509C16.4821 32.489 18.2556 30.7457 20.1615 29.2208C22.0673 27.696 24.1796 27.3361 26.4984 28.141C28.8172 28.9459 30.6401 30.6719 31.9672 33.3189C33.2943 35.9659 34.4265 38.7467 35.3638 41.6612C35.9162 43.3489 36.51 44.9934 37.1452 46.5948C37.7803 48.1961 38.5014 49.7698 39.3084 51.3157C40.3644 53.4083 41.3324 55.5423 42.2124 57.7178C43.0925 59.8932 43.3665 62.1315 43.0343 64.4327C42.6946 66.7859 41.7982 68.6172 40.3448 69.9266C38.8915 71.236 37.2284 71.5656 35.3556 70.9155C32.9476 70.0796 30.5975 69.0049 28.3053 67.6914C26.0131 66.3779 23.663 65.3032 21.255 64.4674C18.8471 63.6315 16.4258 63.0499 13.9912 62.7227C11.5567 62.3954 9.13541 61.8138 6.72744 60.978Z" fill="black"/>
</svg>
